<svg width="16" height="16" viewBox="0 0 16 16" fill="none" xmlns="http://www.w3.org/2000/svg">
<path d="M3.5 2C2.67157 2 2 2.67157 2 3.5V12.5C2 13.3284 2.67157 14 3.5 14H12.5C13.3284 14 14 13.3284 14 12.5V3.5C14 2.67157 13.3284 2 12.5 2H3.5ZM5.75 6.66667V12.3333H3.66667V6.66667H5.75ZM4.70833 5.75C4.1701 5.75 3.75 5.31667 3.75 4.79167C3.75 4.26667 4.18333 3.83333 4.70833 3.83333C5.23333 3.83333 5.66667 4.26667 5.66667 4.79167C5.66667 5.31667 5.24657 5.75 4.70833 5.75ZM12.3333 12.3333H10.25V9.58333C10.25 8.91667 10.2333 8.08333 9.33333 8.08333C8.41667 8.08333 8.25 8.79167 8.25 9.53333V12.3333H6.16667V6.66667H8.16667V7.45833H8.19167C8.46667 6.95833 9.08333 6.41667 10.0417 6.41667C12.0417 6.41667 12.3333 7.79167 12.3333 9.5V12.3333Z" fill="#676A6C"/>
</svg>
