<svg width="16" height="16" viewBox="0 0 16 16" fill="none" xmlns="http://www.w3.org/2000/svg">
<path d="M10.5 1.33333V3.33333C10.5 3.33333 11.6667 3.33333 12.6667 3.66667V5.66667C11.8333 5.6 11 5.4 10.5 5.13333V9.66667C10.5 12.1667 8.5 14.1667 6 14.1667C3.5 14.1667 1.5 12.1667 1.5 9.66667C1.5 7.16667 3.5 5.16667 6 5.16667C6.33333 5.16667 6.66667 5.2 7 5.26667V7.33333C6.66667 7.26667 6.33333 7.23333 6 7.23333C4.66667 7.23333 3.56667 8.33333 3.56667 9.66667C3.56667 11 4.66667 12.1 6 12.1C7.33333 12.1 8.43333 11 8.43333 9.66667V1.33333H10.5Z" fill="#676A6C"/>
</svg>
